<?xml version="1.0" encoding="iso-8859-1"?>
<!-- Generator: Adobe Illustrator 16.0.0, SVG Export Plug-In . SVG Version: 6.00 Build 0)  -->
<!DOCTYPE svg PUBLIC "-//W3C//DTD SVG 1.1//EN" "http://www.w3.org/Graphics/SVG/1.1/DTD/svg11.dtd">
<svg version="1.1" id="Capa_1" xmlns="http://www.w3.org/2000/svg" xmlns:xlink="http://www.w3.org/1999/xlink" x="0px" y="0px"
	 width="585.938px" height="585.938px" viewBox="0 0 585.938 585.938" style="enable-background:new 0 0 585.938 585.938;"
	 xml:space="preserve">
<g>
	<g>
		<g>
			<path d="M439.552,250.876l13.009-12.999c1.234-1.252,1.726-3.083,1.217-4.773c-0.53-1.673-1.938-2.944-3.642-3.307
				l-56.107-11.328c-1.585-0.322-3.207,0.177-4.347,1.312c-1.112,1.145-1.642,2.776-1.31,4.343l11.326,56.08
				c0.373,1.72,1.626,3.14,3.289,3.647c1.7,0.518,3.558,0.041,4.81-1.222l12.971-12.98l30.402,30.384
				c1.858,1.88,4.91,1.88,6.77,0.011l12.014-11.991c0.896-0.899,1.407-2.124,1.407-3.393c0-1.273-0.511-2.497-1.407-3.396
				L439.552,250.876z"/>
			<path d="M583.033,490.401l-30.341-87.733c-2.995-8.627-11.114-14.42-20.251-14.42h-4.616
				c16.767-5.312,29.031-20.836,29.031-39.343V66.721c0-22.862-18.605-41.457-41.457-41.457H70.534
				c-22.85,0-41.457,18.595-41.457,41.457v282.182c0,18.506,12.269,34.031,29.034,39.343h-4.598c-9.135,0-17.256,5.791-20.249,14.42
				L2.92,490.401c-5.616,16.189-3.033,34.078,6.905,48.037c9.939,13.949,26.002,22.236,43.14,22.236H532.97
				c17.139,0,33.199-8.287,43.139-22.236C586.047,524.489,588.629,506.59,583.033,490.401z M292.978,34.832
				c5.771,0,10.468,4.696,10.468,10.467c0,5.782-4.696,10.467-10.468,10.467c-5.773,0-10.469-4.686-10.469-10.467
				C282.508,39.528,287.204,34.832,292.978,34.832z M70.534,65.332l446.256,1.389V350.27l-447.646-1.367L70.534,65.332z
				 M373.642,520.088c-1.098,1.625-2.936,2.594-4.892,2.594H217.208c-1.958,0-3.796-0.969-4.892-2.594
				c-1.075-1.621-1.292-3.678-0.567-5.484l14.615-36.166c2.974-7.326,10.094-12.129,17.999-12.129h97.235
				c7.902,0,15.024,4.803,17.996,12.129l14.615,36.166C374.931,516.411,374.717,518.465,373.642,520.088z"/>
		</g>
	</g>
</g>
<g>
</g>
<g>
</g>
<g>
</g>
<g>
</g>
<g>
</g>
<g>
</g>
<g>
</g>
<g>
</g>
<g>
</g>
<g>
</g>
<g>
</g>
<g>
</g>
<g>
</g>
<g>
</g>
<g>
</g>
</svg>
